<svg xmlns:dc="http://purl.org/dc/elements/1.1/" xmlns:cc="http://creativecommons.org/ns#" xmlns:rdf="http://www.w3.org/1999/02/22-rdf-syntax-ns#" xmlns:svg="http://www.w3.org/2000/svg" xmlns="http://www.w3.org/2000/svg" viewBox="0 0 704 704" fill="none" width="128" height="128"><metadata><rdf:RDF><cc:Work><dc:format>image/svg+xml</dc:format><dc:type rdf:resource="http://purl.org/dc/dcmitype/StillImage"/><dc:title>Open Peeps</dc:title><dc:creator><cc:Agent><dc:title>Pablo Stanley</dc:title></cc:Agent></dc:creator><dc:source>https://www.openpeeps.com/</dc:source><cc:license rdf:resource="https://creativecommons.org/publicdomain/zero/1.0/"/></cc:Work><cc:License rdf:about="https://creativecommons.org/publicdomain/zero/1.0/"><cc:permits rdf:resource="https://creativecommons.org/ns#Reproduction"/><cc:permits rdf:resource="https://creativecommons.org/ns#Distribution"/><cc:permits rdf:resource="https://creativecommons.org/ns#DerivativeWorks"/></cc:License></rdf:RDF></metadata><mask id="avatarsRadiusMask"><rect width="704" height="704" rx="0" ry="0" x="0" y="0" fill="#fff"/></mask><g mask="url(#avatarsRadiusMask)"><g fill-rule="evenodd" clip-rule="evenodd"><path d="M705.281 1074.02a2351.117 2351.117 0 0 1-11.084-68.46c-1.594-10.86-3.149-21.73-4.547-32.618-.979-7.628-2.47-16.351 2.72-22 7.303-7.952 13.937-14.758 14.831-26.149.841-10.717-2.783-22.4-5.049-32.803-4.752-21.816-10.668-43.362-17.205-64.704-6.641-21.683-13.923-43.162-21.31-64.6-6.906-20.044-13.545-40.269-22.54-59.5-17.071-36.495-45.951-63.522-81.643-81.568-8.877-4.488-26.983-20.51-36.257-24.097-8.526-3.298-8.495 6.333-16.886 2.705-6.708-2.9-12.954-6.767-16.71-13.244-4.078-7.033-14.305-16.869-15.862-25.055-3.299-17.351.275-32.12-12.109-45.179-10.994-11.597-25.771-19.542-41.061-23.807-33.636-9.381-78.494-2.822-98.788 28.433-9.693 14.926-13.08 32.968-26.159 45.149-11.421 10.636-8.865 17.908-23.657 23.39-.838.311-23.546-4.56-24.384-4.248-16.182-3.463-31.648 6.23-46.494 11.856-22.133 8.384-43.205 19.298-63.002 32.269-39.92 26.155-74.11 60.118-102.296 98.551-28.42 38.75-50.471 82.182-66.172 127.576a492.842 492.842 0 0 0-10.26 33.455c-1.69 6.307-3.497 12.849-1.438 19.305 1.684 5.283 5.43 9.216 9.829 12.385 5.963 4.297 17.924 7.09 17.69 15.732-.177 6.57-2.406 13.485-3.494 19.978-1.295 7.732-2.36 15.51-3.423 23.276-4.84 35.352-8.607 70.902-10.273 106.552-1.64 35.1-3.001 70.92-.566 106.01.16 2.31.85 4.44 1.964 6.23-1.04.4-1.12 2.34.174 2.61.906.19 1.81.39 2.716.58 1.882 1.42 4.229 2.29 6.93 2.38 1.83.06 3.66.14 5.49.23 19.3 4.04 38.599 7.85 58.152 10.74 23.768 3.5 47.606 6.36 71.518 8.69 49.135 4.78 97.883 3.19 147.083.62 49.124-2.58 98.219-3.18 147.394-1.9 49.218 1.28 98.418 3.42 147.647 4.3 54.999.98 109.914-.52 164.754-4.9 7.519-.59 12.171-6.58 10.688-14.04-8.885-44.75-18.954-89.19-26.911-134.13Z" fill="rgba(237, 185, 138, 1)"/><path d="m201.087 597.521 1.074-.414c14.518-5.671 29.628-14.822 45.421-11.442.558-.208 10.834 1.887 17.872 3.215l-6.68 6.973-11.79 2.268c40.673 67.128 88.778 100.692 144.314 100.692 55.537 0 97.678-33.564 126.425-100.692l3.923-1.085c.484.112 1 .271 1.552.485 9.274 3.587 27.379 19.608 36.256 24.096 35.692 18.047 64.572 45.073 81.643 81.569 8.695 18.59 15.189 38.108 21.85 57.494l.69 2.005c7.387 21.438 14.669 42.918 21.31 64.601 6.253 20.414 11.938 41.015 16.579 61.86l.626 2.844c2.266 10.403 5.89 22.085 5.049 32.803-.318 4.058-1.365 7.534-2.912 10.687l-80.446 28.947 38.326 261.393c-35.107 1.51-70.246 1.9-105.419 1.27-49.229-.88-98.429-3.02-147.647-4.3-47.685-1.24-95.294-.71-142.928 1.67l-12.097.62c-46.613 2.33-92.858 3.52-139.452-1.01l-3.175-.31v-38.24l16.367-212.911-82.945-15.613-81.422-39.546c-2.46-2.459-4.434-5.329-5.532-8.773-1.907-5.98-.498-12.033 1.064-17.905l.375-1.4a492.842 492.842 0 0 1 10.26-33.455c15.7-45.394 37.751-88.827 66.171-127.576 28.187-38.433 62.377-72.396 102.296-98.552 19.797-12.97 40.869-23.884 63.002-32.268Z" fill="rgba(143, 167, 223, 1)"/><path d="M232.235 584.564c5.086-.221 10.272.602 15.346 1.101.442.043.61.725.112.829-9.08 1.897-18.062 4.492-26.98 7.128l-3.819 1.13c-10.057 2.975-19.819 6.044-29.555 10.012-19.404 7.908-37.833 18.582-54.794 30.845C67.233 682.83 19.963 754.324-9.867 828.345a525.982 525.982 0 0 0-20.525 61.653 554.65 554.65 0 0 0-3.83 15.347c-.354 1.505-1.897 5.359-1.05 6.899.747 1.361 3.655 2.202 5.006 2.91l4.561 2.365c8.897 4.585 23.717 12.123 25.203 12.857l2.318 1.141c37.91 18.585 78.418 34.345 121.079 35.436l.334-3.643c1.902-20.141 4.398-40.389 9.846-59.911.293-1.049 1.628-.695 1.75.237 3.035 23.111 2.065 46.402 1.006 69.62-1.875 41.124-4.365 82.224-6.578 123.324-1.108 20.57-2.54 41.11-3.833 61.67-1.295 20.59-1.714 41.68-4.671 62.1-.659 4.55-5.991 7.03-10.029 6.55-4.468-.53-7.905-4.47-7.926-8.98-.054-11.9 1.441-23.94 2.272-35.8.789-11.28 1.636-22.55 2.504-33.82 3.172-41.13 6.821-82.21 10.196-123.33 1.196-14.58 2.488-29.147 3.818-43.715-45.193-1.457-87.414-18.196-127.692-37.754-.583 13.237-1.99 26.45-3.354 39.632-3.805 36.787-7.16 73.557-9.67 110.457-1.269 18.64-2.192 37.3-2.996 55.96a1708.912 1708.912 0 0 0-1.187 36.7l-.137 7.01c-.113 4.44-.564 8.55-4.3 11.78-3.796 3.29-8.922 3.46-12.678 0-5.028-4.63-4.139-10.93-3.99-17.15a1718.048 1718.048 0 0 1 1.775-47.18c1.886-36.64 5.655-73.13 10.58-109.47l1.922-14.03c3.59-26.08 7.532-52.754 15.558-77.877a1428.758 1428.758 0 0 1-9.345-4.691c-5.506-2.788-11.199-5.404-16.55-8.481-4.247-2.441-7.909-5.789-9.09-10.73-1.319-5.505.697-11.526 2.036-16.896l.116-.472a502.049 502.049 0 0 1 4.22-16.153c6.05-21.739 13.53-43.054 22.285-63.849 17.53-41.632 40.157-81.183 67.796-116.944 24.88-32.19 54.269-61.382 88.715-83.276 16.84-10.704 34.786-19.493 53.765-25.707 8.871-2.904 18.523-5.43 27.811-6.47 5.01-.56 10.027-.881 15.061-1.1Zm90.114-65.97c6.044-6.49 18.052.226 15.15 8.82-6.826 20.219-17.696 38.662-34.66 51.948-15.946 12.49-34.961 20.601-55.439 18.87a1.217 1.217 0 0 1-.416-.111l1.765 2.394c13.854 18.741 28.47 37.223 46.087 52.541 35.893 31.211 84.763 48.045 131.953 36.07 37.128-9.421 69.838-38.78 79.458-76.196-1.379.618-3.018.829-4.817.438-7.697-1.671-15.317-9.766-20.281-15.57-5.37-6.279-9.564-13.059-12.638-20.723-5.626-14.026-7.43-32.085.252-45.672.948-1.675 3.134-.736 3.32.899l.292 2.552c1.481 12.734 3.326 25.051 9.33 36.659 2.938 5.68 6.46 11.224 10.747 15.981 2.294 2.545 4.781 4.977 7.466 7.111 2.616 2.079 5.783 3.583 8.128 5.968l.43.458.012-.082c.593-5.041 4.128-7.262 7.587-7.123 3.347.135 7.279 1.608 8.802 2.314l.144.068c23.352 11.21 44.859 25.821 65.099 42.031 41.856 33.524 73.217 77.349 88.412 128.957 7.458 25.329 11.737 51.428 16.254 77.405l2.782 15.917c4.216 23.981 8.926 48.435 18.444 70.743 2.462 5.771.564 11.183-5.473 13.452-7.538 2.834-15.104 5.578-22.682 8.288 3.721 15.963 5.99 32.479 8.778 48.519 5.926 34.1 13.187 67.98 19.413 102.04 3.183 17.41 6.055 34.88 9.235 52.29 1.531 8.39 3.129 16.76 4.683 25.14.837 4.52 1.596 9.06 2.395 13.58l.139.76c.458 2.38 1.033 4.85.376 7.24-.749 2.73-2.876 4.65-4.775 6.61-1.563 1.61-3.822 1.62-5.737.74l-.63-.29c-3.42-1.6-6.1-3.2-7.313-7.06-.768-2.44-1.045-5.19-1.547-7.71-.963-4.82-1.876-9.66-2.738-14.5a3535.65 3535.65 0 0 1-5.052-29.1l-1.536-9.09c-5.27-31.33-10.275-62.85-12.805-94.51-1.123-14.05-2.312-28.08-3.513-42.12l-.901-10.524c-1.14-13.325-2.533-26.987-2.73-40.492l-4.532 1.609-22.11 7.816c-5.482 1.937-12.462 5.907-18.362 5.185-2.888-.354-5.09-1.263-6.79-2.915 2.036 28.733 4.792 57.421 8.465 85.951 3.342 25.97 7.047 51.9 11.423 77.71 2.167 12.78 4.394 25.55 6.813 38.29 1.209 6.37 2.457 12.73 3.743 19.08.641 3.17 1.404 6.35 1.904 9.54.572 3.66-.436 5.91-2.481 8.93-1.679 2.47-5.038 3.74-7.761 2.03-3.606-2.26-5.487-4.22-6.548-8.34-.964-3.75-1.55-7.65-2.296-11.44-1.377-7-2.708-14.01-3.993-21.02-2.687-14.68-5.164-29.38-7.376-44.14-7.795-51.97-12.741-104.37-15.239-156.859-1.233-25.897-1.614-51.817-1.395-77.741.112-13.288.546-26.614 1.486-39.869.952-13.417 2.932-26.566 4.7-39.854.062-.468.722-.495.75 0 .837 14.898 2.149 29.779 2.792 44.716.614 14.253.883 28.528 1.371 42.786.641 18.742 1.53 37.495 2.707 56.235 2.131-2.331 5.343-3.675 8.557-3.15 4.656-.977 9.668-3.42 14.107-4.903l16.734-5.59c8.797-2.938 17.594-5.856 26.422-8.686-7.893-26.553-13.3-53.502-17.917-80.844l-2.059-12.297c-4.075-24.204-8.47-48.419-15.852-71.858-7.761-24.642-19.375-47.552-34.782-68.299-15.187-20.447-33.664-38.451-52.688-55.291-16.287-14.416-33.71-27.432-50.322-41.452.174.929.211 1.952.058 3.076-3.532 25.85-17.017 49.923-35.81 67.828-37.755 35.971-93.642 43.434-141.964 26.566-46.743-16.316-88.07-54.958-102.671-102.775-.25-.818.846-1.143 1.286-.542.81 1.11 1.624 2.22 2.439 3.33-.055-.441.174-.921.718-1.131 17.036-6.578 33.765-15.907 46.535-29.104 6.224-6.433 11.656-13.721 15.944-21.581 2.054-3.765 3.899-7.664 5.371-11.693l.374-1.042c1.784-5.047 3.275-10.193 6.999-14.192Z" fill="#000"/></g><g transform="matrix(.99789 0 0 1 156 62)"><g fill-rule="evenodd" clip-rule="evenodd"><path d="M434.781 366.753c-16.895-76.591-20.187-160.703-64.78-227.579-19.487-27.269-50.797-62.827-87.374-51.62a4114.464 4114.464 0 0 0 4.246-48.465c.753-9.245 4.214-21.564-3.611-28.673-12.919-10.433-34.306 5.53-44.291 14.45-21.632 20.714-30.174 40.832-58.669 54.666-11.422-8.14-22.554-16.68-34.147-24.6-11.813-8.07-28.711-21.18-40.97-6.282-10.39 12.629-3.753 32.533.367 46.428 2.107 7.105 4.201 14.861 7.129 22.169.247 5.555.677 11.1 1.308 16.629-21.109 3.756-42.832 6.916-63 14.287-10.997 5.957-10.027 19.486-2.225 27.584 11.676 11.307 26.45 20.149 42.58 26.084-2.928 10.136-9.95 18.731-18.777 24.351-2.961 1.877-4.622 4.63-5.223 7.567-4.525 2.249-9.37 3.871-14.488 4.924-6.312 1.303-9.96 8.753-8.332 14.674 4.584 14.39 20.737 6.165 31.232 5.149.316 10.049.48 20.52 5.043 29.829-24.39 6.4-45.517 29.737-39.878 56.031 5.122 25.136 32.255 32.817 53.733 38.529 1.627.958 1.622 1.899 2.139 4.272 3.544 16.295.56 34.222-5.027 49.692-1.523 4.217.715 9.494 4.098 12.023 17.491 11.137 23.29-22.778 43.229-1.191-1.488-.223-5.19-2.074-5 .608 25.868 45.396 102.246 48.186 149.043 49.3 5.616 2.732 12.082 1.183 18.506-.561A387.284 387.284 0 0 0 320 495.614c11.149-2.012 30.76.373 31.46-15.33 28.795-11.359 53.553-30.982 70.437-56.982 12.524-17.253 17.469-35.515 12.884-56.549Z" fill="rgba(237, 185, 138, 1)"/><path d="M97.868 411.018c1.88 11.197 6.288 21.898 13.721 31.345.419.531.846 1.061 1.278 1.588l-.499.269-.511.265c-3.918 1.997-7.903 3.053-11.57-.044-3.236-2.735-1.765-8.333-1.488-12.106l.091-1.392.21-2.932.079-1.188c.23-3.774.277-7.622-.702-11.139-.177-.636-.547-1.094-1.008-1.377.127-.917.242-1.837.343-2.758l.056-.531ZM72.582 226.213c-2.72 9.932-4.494 20.023-5.543 30.304-3.047.069-6.095.381-9.138-.347a20.714 20.714 0 0 1-5.774-2.311c-.644-.381-1.568-1.373-2.339-1.776 1.66-.933 3.606-4.258 4.9-5.574a105.994 105.994 0 0 1 6.228-5.838c2.802-2.425 9.104-5.697 9.65-9.542.03-.207-.019-.418-.216-.529a4.417 4.417 0 0 0-1.56-.529 11.53 11.53 0 0 1 3.446-3.63l.346-.228Zm56.73-172.409.473.237 2.327 1.119c4.354 2.118 8.614 4.38 12.869 6.698a806.933 806.933 0 0 1 30.675 17.567c.806.486 1.926-.52 1.347-1.347-.437-.625-.88-1.245-1.328-1.86l.231.171c1.594 1.209 4.216 3.818-.651 7.319-11.527 8.292-21.92 18.194-31.759 28.399-15.34 15.913-28.771 33.708-39.17 53.19-8.766 9.551-15.912 21.065-21.524 33.081a132.441 132.441 0 0 1-5.053-2.387c1.373-.19 2.572-.71 4.1-1.564l.36-.203.644-.375c2.3-1.351 3.016-4.963.884-6.845-1.85-1.635-2.638-2.886-5.08-3.67-2.145-.69-4.397-.998-6.566-1.604-4.57-1.275-8.817-3.294-12.768-5.91-3.544-2.346-6.77-5.264-9.42-8.596l-.663-.852-.656-.83c-1.252-1.604-2.74-3.747-1.975-5.494.787-1.797 4.461-3.701 6.2-4.775l.976-.611c17.17-10.584 37.12-12.012 56.365-16.237.773-.169.515-1.219-.175-1.289a143.53 143.53 0 0 0-10.688-.661c4.922-.864 9.838-1.701 14.72-2.57-.319-2.8-.587-5.605-.806-8.413 2.177 1.849 5.121 2.366 9.205.264 3.28-1.688 4.387-6.034 3.031-9.251-.455-1.082-1.082-1.943-1.831-2.609l-.229-.194-2.394-10.832-5.255-24.059-.157-.69-.177-.73-1.074-4.206c-1.954-7.779-4.029-18.354 2.729-22.079 3.713-2.045 8.658.87 12.263 2.698Zm149.452-35.213.165.75.382 1.658c.815 3.68 1.341 7.45 1.756 11.187.967 8.705 1.144 17.508.584 26.246-.275 4.282-.739 8.597-1.28 12.847-.58 4.555-1.876 9.042-2.213 13.618-1.365 1.742-2.627 3.637-4.062 5.207-3.843 4.199-8.353 7.357-14.239 7.427-11.221.132-20.641-8.591-31.531-10.506l-.74-.122c-1.815-.343-16.095-4.027-14.344-10.24l.071-.228c.576-1.683-.069-3.809-1.326-5.016a8.076 8.076 0 0 0-1.993-1.411c11.004-19.615 25.863-36.35 46.226-47.297l2.796-1.476 1.526-.793c4.653-2.391 9.95-4.814 14.795-5.224 2.45-.208 2.983 1.41 3.427 3.373Z" fill="rgba(74, 49, 44, 1)"/><path d="m260.154 4.678 1.681-.735C267.631 1.434 273.959-.973 280.304.4c7.308 1.58 11.533 7.866 13.342 14.718 2.094 7.925 3.03 16.362 3.604 24.52.593 8.45.364 16.88-.272 25.317-.531 7.055-1.629 15.23-4.255 22.069a.72.72 0 0 1 .406-.191c10.336-1.06 19.861-.442 29.732 2.887 9.195 3.1 18.109 7.452 26.111 12.948 17.284 11.872 30.657 29.803 39.974 48.366 18.927 37.713 22.92 80.375 28.224 121.617l.161 1.25c2.854 22.053 6.645 43.773 12.727 65.166l1.05 3.647c5.582 19.571 8.913 38.61 4.462 58.872-8.607 39.18-38.948 68.753-74.046 85.824-17.92 8.716-37.31 15.147-56.894 18.855-20.087 3.804-41.827 4.441-60.142-5.95-9.08-5.152-1.086-18.31 8.091-13.843 18.938 9.219 40.401 6.184 60.059 1.115 19.553-5.041 38.73-12.099 56.055-22.582 29.731-17.988 54.747-49.043 55.567-85.107.461-20.293-8.211-39.67-12.392-59.262-3.685-17.264-5.972-34.782-8.13-52.297l-1.6-13.011c-4.643-37.313-10.457-75.724-29.618-108.701-16.915-29.109-46.049-52.257-79.579-58.413a.596.596 0 0 1-.414-.256c-1.026 5.523-7.113 10.672-11.008 13.85-5.519 4.506-12.206 7.771-19.48 7.625-14.026-.281-26.07-11.157-35.684-20.267-1.084-1.026.09-2.458 1.323-2.272 11.158 1.68 20.724 10.745 32.161 10.61 5.886-.07 10.396-3.228 14.239-7.427 1.435-1.57 2.697-3.465 4.062-5.207.337-4.576 1.633-9.064 2.213-13.618.541-4.25 1.005-8.566 1.28-12.848.56-8.737.383-17.54-.584-26.245-.415-3.737-.941-7.508-1.756-11.188l-.382-1.658c-.506-2.28-.836-4.357-3.592-4.123-6.126.518-12.974 4.256-18.331 7.076-20.768 10.937-35.867 27.847-47.012 47.715.7.35 1.368.81 1.993 1.41 1.257 1.207 1.902 3.334 1.326 5.016-2.225 6.504-10.135 6.694-15.7 9.241-6.064 2.774-11.76 6.34-17.154 10.246-10.618 7.689-20.373 16.721-29.649 25.96-14.609 14.548-28.175 30.03-41.276 45.915l-2.788 6.228c-2.783 6.226-5.505 12.473-7.757 18.958-3.666 10.546-6.737 21.328-9.098 32.241-2.376 10.984-3.925 22.22-4.512 33.443-.524 10.014.805 20.021.749 29.977.89 1.665 1.212 3.541.793 5.454a29.209 29.209 0 0 1 8.065 3.671c.621.408.227 1.379-.506 1.199-3.232-.796-6.465-.972-9.631-.664-1.68 2.072-4.4 3.391-7.039 3.333l-1.126-.026a9.662 9.662 0 0 1-2.433-.375c-4.454 2.053-8.552 5.008-12.021 8.539-8.341 8.492-12.369 19.618-11.777 31.503.586 11.723 6.83 22.296 17.172 27.927 4.613 2.511 9.739 3.834 14.983 3.931 5.045.091 11.666-1.442 15.811 1.845.466.37.773.862.962 1.406.289-1.221.596-2.439.931-3.652.256-.927 1.799-1.035 1.988 0l.243 1.349c3.474 19.58 4.695 39.738 18.494 55.409 6.454 7.33 14.235 13.941 22.217 19.553l1.321.921c3.41 2.354 7.094 4.641 11.16 5.493 4.518.947 8.253.686 12.408 3.169 1.953 1.168 3.152 3.746 2.433 5.982-4.609 14.352-22.774 7.906-31.931 2.232-5.092-3.155-10.047-6.968-14.651-11.167-4.015 2.446-8.783 4.024-12.88 4.637-6.319.946-13.028-.368-18.065-4.449-5.329-4.316-7.152-10.596-6.247-17.263.45-3.318 1.311-6.554 2.238-9.767l.767-2.624c1.118-3.822 1.992-7.767 4.246-11.104 1.138-1.683 3.839-1.525 4.424.578 1.339 4.813.76 10.246.413 15.259l-.075 1.15c-.227 3.771-1.834 9.555 1.472 12.349 3.982 3.364 8.34 1.827 12.58-.491-.432-.527-.859-1.056-1.278-1.587-13.72-17.438-17.132-39.146-13.374-60.365-3.541 4.645-12.771 5.649-17.669 5.288-7.69-.566-15.257-2.903-21.807-7.013-13.719-8.606-21.435-23.699-21.763-39.754-.32-15.59 6.655-31.357 19.517-40.435a39.892 39.892 0 0 1 11.124-5.488c-1.918-7.616-2.121-16.03-1.705-24.263-4.601.626-9.582-.187-13.742-1.603l-.646-.226c-6.411-2.296-14.554-6.912-15.754-14.115-1.478-8.86 9.456-13.953 15.8-17.492 2.967-1.654 6.002-3.202 9.151-4.48l.949-.375c2.719-1.046 5.92-2.996 8.68-1.442.197.111.245.321.216.528-.546 3.845-6.848 7.118-9.65 9.543a105.977 105.977 0 0 0-6.228 5.837c-1.294 1.316-3.24 4.642-4.9 5.575.771.403 1.695 1.395 2.339 1.776a20.714 20.714 0 0 0 5.774 2.311c3.043.728 6.091.415 9.138.346 1.237-12.126 3.483-23.987 7.099-35.636 6.065-19.544 16.006-40.133 30.188-55.584 10.399-19.482 23.83-37.277 39.17-53.19 9.839-10.205 20.232-20.106 31.759-28.398 5.11-3.676 10.485-6.988 16.19-9.656l1.895-.87c3.167-1.465 7.019-3.367 10.692-3.911 2.376-9.428 6.609-18.445 11.745-26.618 7.076-11.262 16.389-20.76 27.286-28.349a100.671 100.671 0 0 1 17.109-9.598ZM71.119 333.05c9.143-6.141 20.356-8.544 31.282-7.637 5.42.45 10.781 1.72 15.86 3.663l2.094.827c4.851 1.944 10.058 4.342 10.232 10.21.069 2.317-1.646 4.162-3.716 4.882-5.049 1.755-9.14-2.448-13.309-4.684-4.209-2.26-8.683-3.75-13.292-4.957-.442-.116-.885-.221-1.327-.326.24.481.376 1.013.329 1.586-.114 1.372-.513 2.392-.901 3.678-.117.39-.402 2.771-.694 3.065.095.81.105 1.576.13 2.392.07 2.409-.227 4.444-1.457 6.577-3.064 5.313-11.823 5.803-14.756 0-2.933-5.802-.641-11.48 3.816-15.652 1.215-1.136 2.835-2.293 4.595-3.091-6.18-.564-12.43-.297-18.603.515-.602.08-.694-.771-.283-1.048Zm.546-194.646c12.54-2.132 25.636-2.557 38.292-1.296.69.07.948 1.12.175 1.289-19.245 4.225-39.195 5.653-56.365 16.237l-.79.495c-1.649 1.048-5.57 3.027-6.386 4.891-.963 2.2 1.645 5.028 2.858 6.616 2.727 3.566 6.115 6.679 9.855 9.156 3.951 2.616 8.2 4.635 12.768 5.91 2.17.606 4.421.914 6.566 1.604 2.442.784 3.23 2.035 5.08 3.67 2.132 1.882 1.416 5.494-.883 6.845l-.645.375c-3.021 1.729-4.7 2.238-8.538 1.562-3.002-.53-5.869-1.579-8.679-2.745a58.101 58.101 0 0 1-14.222-8.446l-.65-.529c-7.764-6.418-20.919-20.456-12.254-30.676 7.648-9.018 22.677-13.064 33.818-14.958Zm30.884-97.235c12.027-14.168 29.013-4.494 41.065 3.977 12.989 9.128 24.259 19.895 33.371 32.904.579.827-.541 1.833-1.347 1.347a806.933 806.933 0 0 0-30.675-17.567c-4.255-2.318-8.515-4.58-12.869-6.698l-2.327-1.12c-3.637-1.795-8.858-5.07-12.736-2.934-8.362 4.608-3.201 19.704-1.478 27.015l.157.69 5.255 24.059 2.394 10.832c.851.69 1.559 1.613 2.06 2.803 1.356 3.217.249 7.563-3.031 9.251-9.681 4.982-12.959-4.748-14.782-12.06a5723.394 5723.394 0 0 0-4.478-17.812l-2.481-9.809c-3.8-14.848-9.196-31.805 1.902-44.878Z" fill="#000"/></g></g><g transform="translate(315 248)"><g fill-rule="evenodd" clip-rule="evenodd"><path d="m111.356 252.419-10.566-40.337 1.704.263c16.761 2.635 25.142 5.34 25.142 8.115l-.007.189c-.221 3.125-5.646 13.715-16.273 31.77Zm97.266-31.619-3.742 28.841-19.49-21.364 23.232-7.477ZM98.5 149c21.815 0 39.5-16.118 39.5-36s-17.685-36-39.5-36S59 93.118 59 113s17.685 36 39.5 36Z" fill="#fff"/><path d="M157 112c19.882 0 36-15.894 36-35.5S176.882 41 157 41s-36 15.894-36 35.5 16.118 35.5 36 35.5Z" fill="#fff"/><path d="M206 142c16.016 0 29-14.327 29-32 0-17.673-12.984-29.47-29-29.47S177 92.327 177 110s12.984 32 29 32Z" fill="#fff"/><path d="M101.162 210.672c7.253-1.4 16.276 1.65 23.509 2.986l.539.097c8.771 1.532 17.523 3.384 26.391 4.288 8.466.865 17.112 1.02 25.579.047a82.243 82.243 0 0 0 12.047-2.332 80.512 80.512 0 0 0 5.022-1.533l.187-.072c1.217-.502 4.507-2.395 4.468-1.34.925-1.067 2.199-1.824 3.598-2.192 1.974-.519 4.508-.032 6.16 1.364 2.149-1.702 5.373-.481 6.814 1.557 2.471 3.495 1.667 7.592 1.348 11.646l-.027.358a180.845 180.845 0 0 1-1.198 11.411l-.226 1.626c-.797 5.611-1.016 14.865-7.815 16.704-5.377 1.456-10.298-4.077-13.764-8.468l-1.898-2.432c-2.247-2.851-4.287-5.786-5.931-9.027-.749-1.475-1.473-2.986-2.1-4.517-.079-.193-.137-.366-.197-.54-9.972 1.342-20.18 1.15-30.178-.168a150.345 150.345 0 0 1-18.708-3.661l-2.771 5.009c-3.243 5.841-6.532 11.664-9.989 17.373l-.268.435c-3.236 5.149-8.655 10.305-15.062 6.449-5.733-3.452-5.977-11.304-6.581-17.163-.403-3.914-.73-7.854-.887-11.79l-.057-1.686c-.103-3.816-.724-8.239.743-11.808.213-.52.96-.92 1.41-.373 3.065 3.726 3.992 9.501 5.316 14.074 1.474 5.088 3.609 10.645 4.375 15.923l.214-.372a375.048 375.048 0 0 1 2.298-4.283l2.32-4.271a874.11 874.11 0 0 1 6.338-11.511c-2.441-.917-4.86-1.903-7.269-2.904l-5.467-2.286c-3.123-1.319-6.307-2.808-8.655-5.208-.416-.425-.271-1.287.372-1.41ZM204.88 224.76c-5.387 2.19-10.959 3.77-16.632 4.818.366.375.731.75 1.071 1.144 1.335 1.545 2.751 3.029 4.176 4.496l.855.879c2.182 2.239 5.46 5.926 8.805 8.069l.181-.967c.03-.167.053-.312.065-.424l.356-3.181c.058-.53.114-1.061.167-1.592.288-2.869.517-5.744.757-8.617.126-1.514.156-3.069.199-4.625ZM141.13 39.893c12.83-5.48 28.057-2.893 39.108 5.385 11.308 8.47 16.253 22.243 16.907 35.983 8.943-7.636 21.822-1.856 29.354 5.299 8.692 8.257 13.088 20.718 11.062 32.544-2.019 11.786-10.548 22.184-22.087 25.689-5.521 1.677-11.674 1.715-17.228.155-1.886-.531-4.197-1.353-6.332-2.498.122.49.246.981.362 1.47 2.771 11.729 4.342 24.913.184 36.512-6.683 18.639-30.42 29.073-45.24 12.529-5.819-6.495-10.342-16.667-9.99-25.522.185-4.653 2.821-10.036 8.263-9.721 4.22.243 6.221 3.775 5.141 7.512l-.066.216c-2.288 7.145 1.618 17.469 7.277 22.342 8.678 7.473 20.587.97 25.332-7.793 5.53-10.213 4.857-23.307 3.089-34.418-1.736-10.91-5.607-20.889-9.716-30.984-.436.079-.878.152-1.33.213-8.172 1.109-24.799 1.527-33.828-4.393.97 9.137-.933 18.543-6.124 26.28-5.784 8.622-14.498 13.185-24.64 14.583-9.85 1.36-21.268 1.635-30.993-.699-20.71-4.97-28.011-30.537-21.748-48.993C61.592 90.667 71.93 80.848 83.42 78.368c5.92-3.894 13.869-5.047 20.701-4.516 10.204.795 20.254 5.204 27.088 12.947 2.611 2.958 4.758 6.307 6.413 9.89a4.94 4.94 0 0 1 1.936-.938c1.143-.268 2.143-.328 3.261.066.557.197 1.36.893 1.843 1.345l1.103 1.296c1.353 1.576 2.64 2.899 5.048 3.879 6.714 2.733 15.82 3.326 22.953 2.767 18.2-1.424 15.908-25.531 11.425-37.916-5.31-14.672-20.53-23.8-36.014-21.193-6.653 1.119-13 4.66-17.87 9.287-5.436 5.166-7.764 11.406-11.025 17.945-.193.387-.859.303-.942-.124-2.68-13.788 10.028-28.186 21.789-33.21ZM44.194 151.055c-.553-.649.173-1.79.965-1.252 5.801 3.941 12.252 6.785 19.265 7.554 3.294.36 6.614.385 9.895-.12 2.795-.432 5.314-1.284 8.104-.514 1.485.41 1.755 2.133.848 3.213-4.215 5.017-14.592 3.677-20.25 2.332-7.317-1.738-13.95-5.483-18.827-11.213Zm195.211-9.16c2.848-1.765 6.238 1.73 4.554 4.553-4.324 7.243-16.857 7.833-24.128 6.099-.569-.134-.439-1.027.137-1.011 4.179.103 7.956-.7 11.556-2.88 3.076-1.863 4.911-4.921 7.881-6.761Zm-138.962-57.9-.571.006c-6.648.107-12.736 2.642-19.142 3.982a2.805 2.805 0 0 1-1.545-.121c-7.802 5.205-13.18 13.389-13.91 24.158-.506 7.459 1.315 15.586 5.744 21.707 5.041 6.966 13.162 8.042 21.16 8.249l.812.019c15.118.295 31.75-.598 37.139-17.5 3.988-12.509-.271-27.695-11.38-35.188-5.395-3.64-11.839-5.317-18.307-5.311Zm121.799 8.972-.444-.518c-5.929-6.803-15.331-13-24.6-9.573l.027 1.145c.003.192.005.383.005.574-.028 13.138-5.119 25.399-17.632 29.254 3.357 4.789 6.054 10.103 8.214 15.618.762-.498 1.689-.814 2.765-.923 4.405-.446 6.929 3.691 10.749 5.234 3.576 1.446 7.632 1.819 11.407 1.072 8.258-1.633 14.052-8.754 16.082-16.656 2.295-8.933-.737-18.298-6.573-25.227ZM96.534 104.024c2.754-4.652 9.548-3.979 12.271.122l.13.205.029-.038c4.536 5.878 2.344 15.162-4.242 18.467-5.283 2.649-12.002 1.954-15.514-3.203a9.132 9.132 0 0 1-1.477-3.893c-.126-.937-.054-1.873.156-2.804l-.053.218c.104-.47.27-1.207.312-1.382.464-1.896 1.577-3.93 2.97-5.303 1.435-1.414 3.428-2.274 5.418-2.389Zm113.168-4.832c2.439 0 4.603 1.02 6.365 2.637 2.506 2.301 2.855 5.613 2.314 8.756-.166.959-.394 1.886-.633 2.83l-.205.854a7.742 7.742 0 0 1-.119.421 6.94 6.94 0 0 1-.673 1.636c-1.043 3.883-5.266 5.811-8.989 4.964-1.752-.399-3.499-1.853-4.391-3.377a6.588 6.588 0 0 1-.646-1.504L202 114.69c-.136-.412-.221-.854-.33-1.275-.243-.943-.477-1.872-.646-2.83-.575-3.248-.117-6.326 2.314-8.756 1.632-1.633 4.057-2.637 6.364-2.637ZM155.98 65.508c4.233-.568 8.544 1.404 10.733 5.143 1.902 3.25 1.894 7.623 0 10.873l-.16.275c-3.489 5.986-11.626 6.754-16.521 2.13l-.237-.225c-3.148-2.973-3.857-7.904-2.227-11.766 1.49-3.532 4.614-5.919 8.412-6.43Z" fill="#000"/></g></g><g transform="translate(279 400)"/><g transform="translate(179 343)"/><g transform="translate(203 303)"/></g></svg>